<mxfile host="Electron" agent="Mozilla/5.0 (Windows NT 10.0; Win64; x64) AppleWebKit/537.36 (KHTML, like Gecko) draw.io/24.7.5 Chrome/126.0.6478.183 Electron/31.3.0 Safari/537.36" version="24.7.5">
  <diagram id="C5RBs43oDa-KdzZeNtuy" name="Page-1">
    <mxGraphModel dx="733" dy="437" grid="1" gridSize="10" guides="1" tooltips="1" connect="1" arrows="1" fold="1" page="1" pageScale="1" pageWidth="1169" pageHeight="827" math="0" shadow="0">
      <root>
        <mxCell id="WIyWlLk6GJQsqaUBKTNV-0" />
        <mxCell id="WIyWlLk6GJQsqaUBKTNV-1" parent="WIyWlLk6GJQsqaUBKTNV-0" />
        <mxCell id="mMFOf_uaq4YcgrIP37lz-4" value="uDaoRTTI" style="swimlane;fontStyle=0;align=center;verticalAlign=top;childLayout=stackLayout;horizontal=1;startSize=26;horizontalStack=0;resizeParent=1;resizeLast=0;collapsible=1;marginBottom=0;rounded=0;shadow=0;strokeWidth=3;fillColor=#09555B;strokeColor=#BAC8D3;fontColor=#EEEEEE;labelBackgroundColor=none;" vertex="1" parent="WIyWlLk6GJQsqaUBKTNV-1">
          <mxGeometry x="60" y="50" width="500" height="510" as="geometry">
            <mxRectangle x="130" y="380" width="160" height="26" as="alternateBounds" />
          </mxGeometry>
        </mxCell>
        <mxCell id="mMFOf_uaq4YcgrIP37lz-23" value="- FConnection: TFDConnection&#xa;" style="text;align=left;verticalAlign=top;spacingLeft=4;spacingRight=4;overflow=hidden;rotatable=0;points=[[0,0.5],[1,0.5]];portConstraint=eastwest;labelBackgroundColor=none;fontColor=#EEEEEE;" vertex="1" parent="mMFOf_uaq4YcgrIP37lz-4">
          <mxGeometry y="26" width="500" height="24" as="geometry" />
        </mxCell>
        <mxCell id="mMFOf_uaq4YcgrIP37lz-5" value="- FPropertiesToWhere: TStringList" style="text;align=left;verticalAlign=top;spacingLeft=4;spacingRight=4;overflow=hidden;rotatable=0;points=[[0,0.5],[1,0.5]];portConstraint=eastwest;labelBackgroundColor=none;fontColor=#EEEEEE;" vertex="1" parent="mMFOf_uaq4YcgrIP37lz-4">
          <mxGeometry y="50" width="500" height="24" as="geometry" />
        </mxCell>
        <mxCell id="mMFOf_uaq4YcgrIP37lz-7" value="" style="line;html=1;strokeWidth=2;align=left;verticalAlign=middle;spacingTop=-1;spacingLeft=3;spacingRight=3;rotatable=0;labelPosition=right;points=[];portConstraint=eastwest;fillColor=#09555B;fontColor=#EEEEEE;strokeColor=#BAC8D3;labelBackgroundColor=none;" vertex="1" parent="mMFOf_uaq4YcgrIP37lz-4">
          <mxGeometry y="74" width="500" height="8" as="geometry" />
        </mxCell>
        <mxCell id="mMFOf_uaq4YcgrIP37lz-8" value="+ Insert(const pObject: TObject): Boolean" style="text;align=left;verticalAlign=top;spacingLeft=4;spacingRight=4;overflow=hidden;rotatable=0;points=[[0,0.5],[1,0.5]];portConstraint=eastwest;fontStyle=4;labelBackgroundColor=none;fontColor=#EEEEEE;" vertex="1" parent="mMFOf_uaq4YcgrIP37lz-4">
          <mxGeometry y="82" width="500" height="26" as="geometry" />
        </mxCell>
        <mxCell id="mMFOf_uaq4YcgrIP37lz-10" value="+ UpdateBySQLText(const pObject: TObject; const pWhereClause: string = &#39;&#39;): Boolean" style="text;align=left;verticalAlign=top;spacingLeft=4;spacingRight=4;overflow=hidden;rotatable=0;points=[[0,0.5],[1,0.5]];portConstraint=eastwest;fontStyle=4;labelBackgroundColor=none;fontColor=#EEEEEE;" vertex="1" parent="mMFOf_uaq4YcgrIP37lz-4">
          <mxGeometry y="108" width="500" height="26" as="geometry" />
        </mxCell>
        <mxCell id="mMFOf_uaq4YcgrIP37lz-11" value="+ UpdateByPK(const pObject: TObject): Boolean" style="text;align=left;verticalAlign=top;spacingLeft=4;spacingRight=4;overflow=hidden;rotatable=0;points=[[0,0.5],[1,0.5]];portConstraint=eastwest;fontStyle=4;labelBackgroundColor=none;fontColor=#EEEEEE;" vertex="1" parent="mMFOf_uaq4YcgrIP37lz-4">
          <mxGeometry y="134" width="500" height="26" as="geometry" />
        </mxCell>
        <mxCell id="mMFOf_uaq4YcgrIP37lz-12" value="+ UpdateByProp(const pObject: TObject): Boolean" style="text;align=left;verticalAlign=top;spacingLeft=4;spacingRight=4;overflow=hidden;rotatable=0;points=[[0,0.5],[1,0.5]];portConstraint=eastwest;fontStyle=4;labelBackgroundColor=none;fontColor=#EEEEEE;" vertex="1" parent="mMFOf_uaq4YcgrIP37lz-4">
          <mxGeometry y="160" width="500" height="26" as="geometry" />
        </mxCell>
        <mxCell id="mMFOf_uaq4YcgrIP37lz-13" value="+ DeleteBySQLText(const pObject: TObject; const pWhereClause: string = &#39;&#39;): Boolean" style="text;align=left;verticalAlign=top;spacingLeft=4;spacingRight=4;overflow=hidden;rotatable=0;points=[[0,0.5],[1,0.5]];portConstraint=eastwest;fontStyle=4;labelBackgroundColor=none;fontColor=#EEEEEE;" vertex="1" parent="mMFOf_uaq4YcgrIP37lz-4">
          <mxGeometry y="186" width="500" height="26" as="geometry" />
        </mxCell>
        <mxCell id="mMFOf_uaq4YcgrIP37lz-14" value="+ DeleteByPK(const pObject: TObject): Boolean" style="text;align=left;verticalAlign=top;spacingLeft=4;spacingRight=4;overflow=hidden;rotatable=0;points=[[0,0.5],[1,0.5]];portConstraint=eastwest;fontStyle=4;labelBackgroundColor=none;fontColor=#EEEEEE;" vertex="1" parent="mMFOf_uaq4YcgrIP37lz-4">
          <mxGeometry y="212" width="500" height="26" as="geometry" />
        </mxCell>
        <mxCell id="mMFOf_uaq4YcgrIP37lz-15" value="+ DeleteByProp(const pObject: TObject): Boolean" style="text;align=left;verticalAlign=top;spacingLeft=4;spacingRight=4;overflow=hidden;rotatable=0;points=[[0,0.5],[1,0.5]];portConstraint=eastwest;fontStyle=4;labelBackgroundColor=none;fontColor=#EEEEEE;" vertex="1" parent="mMFOf_uaq4YcgrIP37lz-4">
          <mxGeometry y="238" width="500" height="26" as="geometry" />
        </mxCell>
        <mxCell id="mMFOf_uaq4YcgrIP37lz-16" value="+ LoadObjectByPK(const pObject: TObject): Boolean" style="text;align=left;verticalAlign=top;spacingLeft=4;spacingRight=4;overflow=hidden;rotatable=0;points=[[0,0.5],[1,0.5]];portConstraint=eastwest;fontStyle=4;labelBackgroundColor=none;fontColor=#EEEEEE;" vertex="1" parent="mMFOf_uaq4YcgrIP37lz-4">
          <mxGeometry y="264" width="500" height="26" as="geometry" />
        </mxCell>
        <mxCell id="mMFOf_uaq4YcgrIP37lz-17" value="+ ResetPropertiesToDefault(const pObject: TObject)" style="text;align=left;verticalAlign=top;spacingLeft=4;spacingRight=4;overflow=hidden;rotatable=0;points=[[0,0.5],[1,0.5]];portConstraint=eastwest;fontStyle=4;labelBackgroundColor=none;fontColor=#EEEEEE;" vertex="1" parent="mMFOf_uaq4YcgrIP37lz-4">
          <mxGeometry y="290" width="500" height="26" as="geometry" />
        </mxCell>
        <mxCell id="mMFOf_uaq4YcgrIP37lz-18" value="+ AddPropertyToWhere(const pPropertyName: string)" style="text;align=left;verticalAlign=top;spacingLeft=4;spacingRight=4;overflow=hidden;rotatable=0;points=[[0,0.5],[1,0.5]];portConstraint=eastwest;fontStyle=4;labelBackgroundColor=none;fontColor=#EEEEEE;" vertex="1" parent="mMFOf_uaq4YcgrIP37lz-4">
          <mxGeometry y="316" width="500" height="26" as="geometry" />
        </mxCell>
        <mxCell id="mMFOf_uaq4YcgrIP37lz-19" value="+ GetPropertiesToWhere: TStringList" style="text;align=left;verticalAlign=top;spacingLeft=4;spacingRight=4;overflow=hidden;rotatable=0;points=[[0,0.5],[1,0.5]];portConstraint=eastwest;fontStyle=4;labelBackgroundColor=none;fontColor=#EEEEEE;" vertex="1" parent="mMFOf_uaq4YcgrIP37lz-4">
          <mxGeometry y="342" width="500" height="26" as="geometry" />
        </mxCell>
        <mxCell id="mMFOf_uaq4YcgrIP37lz-24" value="+ CheckTableAttribute(pType: TRttiType): Boolean&#xa;" style="text;align=left;verticalAlign=top;spacingLeft=4;spacingRight=4;overflow=hidden;rotatable=0;points=[[0,0.5],[1,0.5]];portConstraint=eastwest;fontStyle=4;labelBackgroundColor=none;fontColor=#EEEEEE;" vertex="1" parent="mMFOf_uaq4YcgrIP37lz-4">
          <mxGeometry y="368" width="500" height="26" as="geometry" />
        </mxCell>
        <mxCell id="mMFOf_uaq4YcgrIP37lz-25" value="+ CheckColumnsAttribute(pProperty: TRttiProperty): Boolean&#xa;" style="text;align=left;verticalAlign=top;spacingLeft=4;spacingRight=4;overflow=hidden;rotatable=0;points=[[0,0.5],[1,0.5]];portConstraint=eastwest;fontStyle=4;labelBackgroundColor=none;fontColor=#EEEEEE;" vertex="1" parent="mMFOf_uaq4YcgrIP37lz-4">
          <mxGeometry y="394" width="500" height="26" as="geometry" />
        </mxCell>
        <mxCell id="mMFOf_uaq4YcgrIP37lz-26" value="+ GetParameterValue(const pObject: TObject;  const pProperty: TRttiProperty): Variant" style="text;align=left;verticalAlign=top;spacingLeft=4;spacingRight=4;overflow=hidden;rotatable=0;points=[[0,0.5],[1,0.5]];portConstraint=eastwest;fontStyle=4;labelBackgroundColor=none;fontColor=#EEEEEE;" vertex="1" parent="mMFOf_uaq4YcgrIP37lz-4">
          <mxGeometry y="420" width="500" height="26" as="geometry" />
        </mxCell>
        <mxCell id="mMFOf_uaq4YcgrIP37lz-27" value="+ FindPrimaryKeyProperty(const pType: TRttiType): TRttiProperty" style="text;align=left;verticalAlign=top;spacingLeft=4;spacingRight=4;overflow=hidden;rotatable=0;points=[[0,0.5],[1,0.5]];portConstraint=eastwest;fontStyle=4;labelBackgroundColor=none;fontColor=#EEEEEE;" vertex="1" parent="mMFOf_uaq4YcgrIP37lz-4">
          <mxGeometry y="446" width="500" height="26" as="geometry" />
        </mxCell>
        <mxCell id="mMFOf_uaq4YcgrIP37lz-28" value="uDBColumnAttribute" style="swimlane;fontStyle=2;align=center;verticalAlign=top;childLayout=stackLayout;horizontal=1;startSize=26;horizontalStack=0;resizeParent=1;resizeLast=0;collapsible=1;marginBottom=0;rounded=0;shadow=0;strokeWidth=1;labelBackgroundColor=none;fillColor=#09555B;strokeColor=#BAC8D3;fontColor=#EEEEEE;" vertex="1" parent="WIyWlLk6GJQsqaUBKTNV-1">
          <mxGeometry x="670" y="50" width="300" height="120" as="geometry">
            <mxRectangle x="230" y="140" width="160" height="26" as="alternateBounds" />
          </mxGeometry>
        </mxCell>
        <mxCell id="mMFOf_uaq4YcgrIP37lz-30" value="- TDBColumnAttribute = class(TCustomAttribute)" style="text;align=left;verticalAlign=top;spacingLeft=4;spacingRight=4;overflow=hidden;rotatable=0;points=[[0,0.5],[1,0.5]];portConstraint=eastwest;rounded=0;shadow=0;html=0;labelBackgroundColor=none;fontColor=#EEEEEE;" vertex="1" parent="mMFOf_uaq4YcgrIP37lz-28">
          <mxGeometry y="26" width="300" height="26" as="geometry" />
        </mxCell>
        <mxCell id="mMFOf_uaq4YcgrIP37lz-31" value="- TDBTable = class(TCustomAttribute)" style="text;align=left;verticalAlign=top;spacingLeft=4;spacingRight=4;overflow=hidden;rotatable=0;points=[[0,0.5],[1,0.5]];portConstraint=eastwest;rounded=0;shadow=0;html=0;labelBackgroundColor=none;fontColor=#EEEEEE;" vertex="1" parent="mMFOf_uaq4YcgrIP37lz-28">
          <mxGeometry y="52" width="300" height="26" as="geometry" />
        </mxCell>
        <mxCell id="mMFOf_uaq4YcgrIP37lz-32" value="" style="line;html=1;strokeWidth=1;align=left;verticalAlign=middle;spacingTop=-1;spacingLeft=3;spacingRight=3;rotatable=0;labelPosition=right;points=[];portConstraint=eastwest;labelBackgroundColor=none;fillColor=#09555B;strokeColor=#BAC8D3;fontColor=#EEEEEE;" vertex="1" parent="mMFOf_uaq4YcgrIP37lz-28">
          <mxGeometry y="78" width="300" height="8" as="geometry" />
        </mxCell>
        <mxCell id="mMFOf_uaq4YcgrIP37lz-42" value="EntiyClass1" style="swimlane;fontStyle=0;align=center;verticalAlign=top;childLayout=stackLayout;horizontal=1;startSize=26;horizontalStack=0;resizeParent=1;resizeLast=0;collapsible=1;marginBottom=0;rounded=0;shadow=0;strokeWidth=1;labelBackgroundColor=none;fillColor=#09555B;strokeColor=#BAC8D3;fontColor=#EEEEEE;" vertex="1" parent="WIyWlLk6GJQsqaUBKTNV-1">
          <mxGeometry x="670" y="190" width="160" height="110" as="geometry">
            <mxRectangle x="550" y="140" width="160" height="26" as="alternateBounds" />
          </mxGeometry>
        </mxCell>
        <mxCell id="mMFOf_uaq4YcgrIP37lz-44" value=" - id: Integer" style="text;align=left;verticalAlign=top;spacingLeft=4;spacingRight=4;overflow=hidden;rotatable=0;points=[[0,0.5],[1,0.5]];portConstraint=eastwest;rounded=0;shadow=0;html=0;labelBackgroundColor=none;fontColor=#EEEEEE;" vertex="1" parent="mMFOf_uaq4YcgrIP37lz-42">
          <mxGeometry y="26" width="160" height="26" as="geometry" />
        </mxCell>
        <mxCell id="mMFOf_uaq4YcgrIP37lz-45" value="- name: String" style="text;align=left;verticalAlign=top;spacingLeft=4;spacingRight=4;overflow=hidden;rotatable=0;points=[[0,0.5],[1,0.5]];portConstraint=eastwest;rounded=0;shadow=0;html=0;labelBackgroundColor=none;fontColor=#EEEEEE;" vertex="1" parent="mMFOf_uaq4YcgrIP37lz-42">
          <mxGeometry y="52" width="160" height="26" as="geometry" />
        </mxCell>
        <mxCell id="mMFOf_uaq4YcgrIP37lz-48" value="" style="line;html=1;strokeWidth=1;align=left;verticalAlign=middle;spacingTop=-1;spacingLeft=3;spacingRight=3;rotatable=0;labelPosition=right;points=[];portConstraint=eastwest;labelBackgroundColor=none;fillColor=#09555B;strokeColor=#BAC8D3;fontColor=#EEEEEE;" vertex="1" parent="mMFOf_uaq4YcgrIP37lz-42">
          <mxGeometry y="78" width="160" height="8" as="geometry" />
        </mxCell>
        <mxCell id="mMFOf_uaq4YcgrIP37lz-51" value="EntiyClass2" style="swimlane;fontStyle=0;align=center;verticalAlign=top;childLayout=stackLayout;horizontal=1;startSize=26;horizontalStack=0;resizeParent=1;resizeLast=0;collapsible=1;marginBottom=0;rounded=0;shadow=0;strokeWidth=1;labelBackgroundColor=none;fillColor=#09555B;strokeColor=#BAC8D3;fontColor=#EEEEEE;" vertex="1" parent="WIyWlLk6GJQsqaUBKTNV-1">
          <mxGeometry x="670" y="320" width="160" height="110" as="geometry">
            <mxRectangle x="550" y="140" width="160" height="26" as="alternateBounds" />
          </mxGeometry>
        </mxCell>
        <mxCell id="mMFOf_uaq4YcgrIP37lz-52" value=" - id: Integer" style="text;align=left;verticalAlign=top;spacingLeft=4;spacingRight=4;overflow=hidden;rotatable=0;points=[[0,0.5],[1,0.5]];portConstraint=eastwest;rounded=0;shadow=0;html=0;labelBackgroundColor=none;fontColor=#EEEEEE;" vertex="1" parent="mMFOf_uaq4YcgrIP37lz-51">
          <mxGeometry y="26" width="160" height="26" as="geometry" />
        </mxCell>
        <mxCell id="mMFOf_uaq4YcgrIP37lz-53" value="- name: String" style="text;align=left;verticalAlign=top;spacingLeft=4;spacingRight=4;overflow=hidden;rotatable=0;points=[[0,0.5],[1,0.5]];portConstraint=eastwest;rounded=0;shadow=0;html=0;labelBackgroundColor=none;fontColor=#EEEEEE;" vertex="1" parent="mMFOf_uaq4YcgrIP37lz-51">
          <mxGeometry y="52" width="160" height="26" as="geometry" />
        </mxCell>
        <mxCell id="mMFOf_uaq4YcgrIP37lz-54" value="" style="line;html=1;strokeWidth=1;align=left;verticalAlign=middle;spacingTop=-1;spacingLeft=3;spacingRight=3;rotatable=0;labelPosition=right;points=[];portConstraint=eastwest;labelBackgroundColor=none;fillColor=#09555B;strokeColor=#BAC8D3;fontColor=#EEEEEE;" vertex="1" parent="mMFOf_uaq4YcgrIP37lz-51">
          <mxGeometry y="78" width="160" height="8" as="geometry" />
        </mxCell>
        <mxCell id="mMFOf_uaq4YcgrIP37lz-55" value="EntiyClass3" style="swimlane;fontStyle=0;align=center;verticalAlign=top;childLayout=stackLayout;horizontal=1;startSize=26;horizontalStack=0;resizeParent=1;resizeLast=0;collapsible=1;marginBottom=0;rounded=0;shadow=0;strokeWidth=1;labelBackgroundColor=none;fillColor=#09555B;strokeColor=#BAC8D3;fontColor=#EEEEEE;" vertex="1" parent="WIyWlLk6GJQsqaUBKTNV-1">
          <mxGeometry x="670" y="450" width="160" height="110" as="geometry">
            <mxRectangle x="550" y="140" width="160" height="26" as="alternateBounds" />
          </mxGeometry>
        </mxCell>
        <mxCell id="mMFOf_uaq4YcgrIP37lz-56" value=" - id: Integer" style="text;align=left;verticalAlign=top;spacingLeft=4;spacingRight=4;overflow=hidden;rotatable=0;points=[[0,0.5],[1,0.5]];portConstraint=eastwest;rounded=0;shadow=0;html=0;labelBackgroundColor=none;fontColor=#EEEEEE;" vertex="1" parent="mMFOf_uaq4YcgrIP37lz-55">
          <mxGeometry y="26" width="160" height="26" as="geometry" />
        </mxCell>
        <mxCell id="mMFOf_uaq4YcgrIP37lz-57" value="- name: String" style="text;align=left;verticalAlign=top;spacingLeft=4;spacingRight=4;overflow=hidden;rotatable=0;points=[[0,0.5],[1,0.5]];portConstraint=eastwest;rounded=0;shadow=0;html=0;labelBackgroundColor=none;fontColor=#EEEEEE;" vertex="1" parent="mMFOf_uaq4YcgrIP37lz-55">
          <mxGeometry y="52" width="160" height="26" as="geometry" />
        </mxCell>
        <mxCell id="mMFOf_uaq4YcgrIP37lz-58" value="" style="line;html=1;strokeWidth=1;align=left;verticalAlign=middle;spacingTop=-1;spacingLeft=3;spacingRight=3;rotatable=0;labelPosition=right;points=[];portConstraint=eastwest;labelBackgroundColor=none;fillColor=#09555B;strokeColor=#BAC8D3;fontColor=#EEEEEE;" vertex="1" parent="mMFOf_uaq4YcgrIP37lz-55">
          <mxGeometry y="78" width="160" height="8" as="geometry" />
        </mxCell>
        <mxCell id="mMFOf_uaq4YcgrIP37lz-59" value="" style="endArrow=block;startArrow=block;endFill=1;startFill=1;html=1;rounded=0;strokeColor=#ffffff;entryX=0;entryY=0.363;entryDx=0;entryDy=0;exitX=1;exitY=0.5;exitDx=0;exitDy=0;entryPerimeter=0;" edge="1" parent="WIyWlLk6GJQsqaUBKTNV-1" source="mMFOf_uaq4YcgrIP37lz-5" target="mMFOf_uaq4YcgrIP37lz-31">
          <mxGeometry width="160" relative="1" as="geometry">
            <mxPoint x="550" y="110" as="sourcePoint" />
            <mxPoint x="710" y="110" as="targetPoint" />
          </mxGeometry>
        </mxCell>
        <mxCell id="mMFOf_uaq4YcgrIP37lz-60" value="" style="endArrow=block;dashed=1;endFill=0;endSize=12;html=1;rounded=0;strokeColor=#FFFFFF;entryX=1;entryY=0.5;entryDx=0;entryDy=0;exitX=-0.003;exitY=0.308;exitDx=0;exitDy=0;exitPerimeter=0;" edge="1" parent="WIyWlLk6GJQsqaUBKTNV-1" source="mMFOf_uaq4YcgrIP37lz-53" target="mMFOf_uaq4YcgrIP37lz-18">
          <mxGeometry width="160" relative="1" as="geometry">
            <mxPoint x="610" y="380" as="sourcePoint" />
            <mxPoint x="770" y="380" as="targetPoint" />
          </mxGeometry>
        </mxCell>
        <mxCell id="mMFOf_uaq4YcgrIP37lz-61" value="" style="endArrow=block;dashed=1;endFill=0;endSize=12;html=1;rounded=0;strokeColor=#FFFFFF;entryX=1;entryY=0.5;entryDx=0;entryDy=0;exitX=-0.003;exitY=0.308;exitDx=0;exitDy=0;exitPerimeter=0;" edge="1" parent="WIyWlLk6GJQsqaUBKTNV-1">
          <mxGeometry width="160" relative="1" as="geometry">
            <mxPoint x="670" y="501" as="sourcePoint" />
            <mxPoint x="560" y="500" as="targetPoint" />
          </mxGeometry>
        </mxCell>
        <mxCell id="mMFOf_uaq4YcgrIP37lz-62" value="" style="endArrow=block;dashed=1;endFill=0;endSize=12;html=1;rounded=0;strokeColor=#FFFFFF;entryX=1;entryY=0.5;entryDx=0;entryDy=0;exitX=-0.003;exitY=0.308;exitDx=0;exitDy=0;exitPerimeter=0;" edge="1" parent="WIyWlLk6GJQsqaUBKTNV-1">
          <mxGeometry width="160" relative="1" as="geometry">
            <mxPoint x="670" y="245.5" as="sourcePoint" />
            <mxPoint x="560" y="244.5" as="targetPoint" />
          </mxGeometry>
        </mxCell>
        <mxCell id="mMFOf_uaq4YcgrIP37lz-63" value="" style="endArrow=block;dashed=1;endFill=0;endSize=12;html=1;rounded=0;strokeColor=#FFFFFF;exitX=1.018;exitY=-0.026;exitDx=0;exitDy=0;exitPerimeter=0;" edge="1" parent="WIyWlLk6GJQsqaUBKTNV-1" source="mMFOf_uaq4YcgrIP37lz-45">
          <mxGeometry width="160" relative="1" as="geometry">
            <mxPoint x="1020" y="261" as="sourcePoint" />
            <mxPoint x="880" y="170" as="targetPoint" />
            <Array as="points">
              <mxPoint x="880" y="241" />
            </Array>
          </mxGeometry>
        </mxCell>
        <mxCell id="mMFOf_uaq4YcgrIP37lz-65" value="" style="endArrow=block;dashed=1;endFill=0;endSize=12;html=1;rounded=0;strokeColor=#FFFFFF;exitX=1.018;exitY=-0.026;exitDx=0;exitDy=0;exitPerimeter=0;" edge="1" parent="WIyWlLk6GJQsqaUBKTNV-1">
          <mxGeometry width="160" relative="1" as="geometry">
            <mxPoint x="830" y="381" as="sourcePoint" />
            <mxPoint x="920" y="170" as="targetPoint" />
            <Array as="points">
              <mxPoint x="920" y="380" />
            </Array>
          </mxGeometry>
        </mxCell>
        <mxCell id="mMFOf_uaq4YcgrIP37lz-66" value="" style="endArrow=block;dashed=1;endFill=0;endSize=12;html=1;rounded=0;strokeColor=#FFFFFF;exitX=1.018;exitY=-0.026;exitDx=0;exitDy=0;exitPerimeter=0;" edge="1" parent="WIyWlLk6GJQsqaUBKTNV-1">
          <mxGeometry width="160" relative="1" as="geometry">
            <mxPoint x="830" y="511" as="sourcePoint" />
            <mxPoint x="960" y="170" as="targetPoint" />
            <Array as="points">
              <mxPoint x="960" y="510" />
            </Array>
          </mxGeometry>
        </mxCell>
      </root>
    </mxGraphModel>
  </diagram>
</mxfile>
